<?xml version="1.0" encoding="UTF-8" standalone="no"?>
<!DOCTYPE svg PUBLIC "-//W3C//DTD SVG 1.1//EN"
 "http://www.w3.org/Graphics/SVG/1.1/DTD/svg11.dtd">
<!-- Generated by graphviz version 2.40.1 (20161225.0304)
 -->
<!-- Title: dependencies Pages: 1 -->
<svg width="582pt" height="284pt"
 viewBox="0.00 0.00 582.00 284.00" xmlns="http://www.w3.org/2000/svg" xmlns:xlink="http://www.w3.org/1999/xlink">
<g id="graph0" class="graph" transform="scale(1 1) rotate(0) translate(4 280)">
<title>dependencies</title>
<polygon fill="#ffffff" stroke="transparent" points="-4,4 -4,-280 578,-280 578,4 -4,4"/>
<text text-anchor="start" x="266.0091" y="-42.4" font-family="sans-serif" font-weight="bold" font-size="14.00" fill="#000000">Legend</text>
<polygon fill="#ffffb3" stroke="transparent" points="53,-10 53,-30 73,-30 73,-10 53,-10"/>
<text text-anchor="start" x="76.629" y="-15.4" font-family="sans-serif" font-size="14.00" fill="#000000"> &#160;Declarations</text>
<polygon fill="#8dd3c7" stroke="transparent" points="166,-10 166,-30 186,-30 186,-10 166,-10"/>
<text text-anchor="start" x="189.7251" y="-15.4" font-family="sans-serif" font-size="14.00" fill="#000000"> &#160;Module</text>
<polygon fill="#80b1d3" stroke="transparent" points="252,-10 252,-30 272,-30 272,-10 252,-10"/>
<text text-anchor="start" x="275.7812" y="-15.4" font-family="sans-serif" font-size="14.00" fill="#000000"> &#160;Bootstrap</text>
<polygon fill="#fdb462" stroke="transparent" points="349,-10 349,-30 369,-30 369,-10 349,-10"/>
<text text-anchor="start" x="372.6732" y="-15.4" font-family="sans-serif" font-size="14.00" fill="#000000"> &#160;Providers</text>
<polygon fill="#fb8072" stroke="transparent" points="445,-10 445,-30 465,-30 465,-10 445,-10"/>
<text text-anchor="start" x="468.7258" y="-15.4" font-family="sans-serif" font-size="14.00" fill="#000000"> &#160;Exports</text>
<g id="clust1" class="cluster">
<title>cluster_ModalManagerModule</title>
<polygon fill="none" stroke="#000000" stroke-dasharray="1,5" points="8,-70 8,-268 566,-268 566,-70 8,-70"/>
</g>
<g id="clust2" class="cluster">
<title>cluster_ModalManagerModule_declarations</title>
<polygon fill="none" stroke="#000000" points="376,-78 376,-130 558,-130 558,-78 376,-78"/>
</g>
<g id="clust4" class="cluster">
<title>cluster_ModalManagerModule_imports</title>
<polygon fill="none" stroke="#000000" points="240,-78 240,-130 368,-130 368,-78 240,-78"/>
</g>
<g id="clust5" class="cluster">
<title>cluster_ModalManagerModule_exports</title>
<polygon fill="none" stroke="#000000" points="211,-208 211,-260 397,-260 397,-208 211,-208"/>
</g>
<g id="clust7" class="cluster">
<title>cluster_ModalManagerModule_providers</title>
<polygon fill="none" stroke="#000000" points="16,-78 16,-130 232,-130 232,-78 16,-78"/>
</g>
<!-- ModalWindowComponent -->
<g id="node1" class="node">
<title>ModalWindowComponent</title>
<polygon fill="#ffffb3" stroke="#000000" points="550.094,-122 383.906,-122 383.906,-86 550.094,-86 550.094,-122"/>
<text text-anchor="middle" x="467" y="-99.8" font-family="Times,serif" font-size="14.00" fill="#000000">ModalWindowComponent</text>
</g>
<!-- ModalManagerModule -->
<g id="node2" class="node">
<title>ModalManagerModule</title>
<polygon fill="#8dd3c7" stroke="#000000" points="376.8487,-187 373.8487,-191 352.8487,-191 349.8487,-187 231.1513,-187 231.1513,-151 376.8487,-151 376.8487,-187"/>
<text text-anchor="middle" x="304" y="-164.8" font-family="Times,serif" font-size="14.00" fill="#000000">ModalManagerModule</text>
</g>
<!-- ModalWindowComponent&#45;&gt;ModalManagerModule -->
<g id="edge1" class="edge">
<title>ModalWindowComponent&#45;&gt;ModalManagerModule</title>
<path fill="none" stroke="#000000" d="M383.7886,-104C374.5429,-104 368.3791,-104 368.3791,-104 368.3791,-104 368.3791,-140.8939 368.3791,-140.8939"/>
<polygon fill="#000000" stroke="#000000" points="364.8791,-140.8938 368.3791,-150.8939 371.8791,-140.8939 364.8791,-140.8938"/>
</g>
<!-- ModalWindowComponent  -->
<g id="node4" class="node">
<title>ModalWindowComponent </title>
<polygon fill="#fb8072" stroke="#000000" points="388.5945,-252 219.4055,-252 219.4055,-216 388.5945,-216 388.5945,-252"/>
<text text-anchor="middle" x="304" y="-229.8" font-family="Times,serif" font-size="14.00" fill="#000000">ModalWindowComponent </text>
</g>
<!-- ModalManagerModule&#45;&gt;ModalWindowComponent  -->
<g id="edge3" class="edge">
<title>ModalManagerModule&#45;&gt;ModalWindowComponent </title>
<path fill="none" stroke="#000000" stroke-dasharray="5,2" d="M304,-187.1061C304,-187.1061 304,-205.991 304,-205.991"/>
<polygon fill="#000000" stroke="#000000" points="300.5001,-205.9909 304,-215.991 307.5001,-205.991 300.5001,-205.9909"/>
</g>
<!-- CommonModule -->
<g id="node3" class="node">
<title>CommonModule</title>
<polygon fill="#8dd3c7" stroke="#000000" points="359.6681,-122 356.6681,-126 335.6681,-126 332.6681,-122 248.3319,-122 248.3319,-86 359.6681,-86 359.6681,-122"/>
<text text-anchor="middle" x="304" y="-99.8" font-family="Times,serif" font-size="14.00" fill="#000000">CommonModule</text>
</g>
<!-- CommonModule&#45;&gt;ModalManagerModule -->
<g id="edge2" class="edge">
<title>CommonModule&#45;&gt;ModalManagerModule</title>
<path fill="none" stroke="#000000" d="M304,-122.1061C304,-122.1061 304,-140.991 304,-140.991"/>
<polygon fill="#000000" stroke="#000000" points="300.5001,-140.9909 304,-150.991 307.5001,-140.991 300.5001,-140.9909"/>
</g>
<!-- ModalManagerService -->
<g id="node5" class="node">
<title>ModalManagerService</title>
<ellipse fill="#fdb462" stroke="#000000" cx="124" cy="-104" rx="99.5385" ry="18"/>
<text text-anchor="middle" x="124" y="-99.8" font-family="Times,serif" font-size="14.00" fill="#000000">ModalManagerService</text>
</g>
<!-- ModalManagerService&#45;&gt;ModalManagerModule -->
<g id="edge4" class="edge">
<title>ModalManagerService&#45;&gt;ModalManagerModule</title>
<path fill="none" stroke="#000000" d="M223.5444,-104C233.2697,-104 239.621,-104 239.621,-104 239.621,-104 239.621,-140.8939 239.621,-140.8939"/>
<polygon fill="#000000" stroke="#000000" points="236.121,-140.8938 239.621,-150.8939 243.121,-140.8939 236.121,-140.8938"/>
</g>
</g>
</svg>
