<?xml version="1.0" encoding="UTF-8" standalone="no"?>
<!DOCTYPE svg PUBLIC "-//W3C//DTD SVG 1.1//EN"
 "http://www.w3.org/Graphics/SVG/1.1/DTD/svg11.dtd">
<!-- Generated by graphviz version 2.40.1 (20161225.0304)
 -->
<!-- Title: dependencies Pages: 1 -->
<svg width="504pt" height="284pt"
 viewBox="0.00 0.00 504.00 284.00" xmlns="http://www.w3.org/2000/svg" xmlns:xlink="http://www.w3.org/1999/xlink">
<g id="graph0" class="graph" transform="scale(1 1) rotate(0) translate(4 280)">
<title>dependencies</title>
<polygon fill="#ffffff" stroke="transparent" points="-4,4 -4,-280 500,-280 500,4 -4,4"/>
<text text-anchor="start" x="227.0091" y="-42.4" font-family="sans-serif" font-weight="bold" font-size="14.00" fill="#000000">Legend</text>
<polygon fill="#ffffb3" stroke="transparent" points="14,-10 14,-30 34,-30 34,-10 14,-10"/>
<text text-anchor="start" x="37.629" y="-15.4" font-family="sans-serif" font-size="14.00" fill="#000000"> &#160;Declarations</text>
<polygon fill="#8dd3c7" stroke="transparent" points="127,-10 127,-30 147,-30 147,-10 127,-10"/>
<text text-anchor="start" x="150.7251" y="-15.4" font-family="sans-serif" font-size="14.00" fill="#000000"> &#160;Module</text>
<polygon fill="#80b1d3" stroke="transparent" points="213,-10 213,-30 233,-30 233,-10 213,-10"/>
<text text-anchor="start" x="236.7812" y="-15.4" font-family="sans-serif" font-size="14.00" fill="#000000"> &#160;Bootstrap</text>
<polygon fill="#fdb462" stroke="transparent" points="310,-10 310,-30 330,-30 330,-10 310,-10"/>
<text text-anchor="start" x="333.6732" y="-15.4" font-family="sans-serif" font-size="14.00" fill="#000000"> &#160;Providers</text>
<polygon fill="#fb8072" stroke="transparent" points="406,-10 406,-30 426,-30 426,-10 406,-10"/>
<text text-anchor="start" x="429.7258" y="-15.4" font-family="sans-serif" font-size="14.00" fill="#000000"> &#160;Exports</text>
<g id="clust1" class="cluster">
<title>cluster_ModalManagerModule</title>
<polygon fill="none" stroke="#000000" stroke-dasharray="1,5" points="37,-70 37,-268 459,-268 459,-70 37,-70"/>
</g>
<g id="clust2" class="cluster">
<title>cluster_ModalManagerModule_declarations</title>
<polygon fill="none" stroke="#000000" points="269,-78 269,-130 451,-130 451,-78 269,-78"/>
</g>
<g id="clust5" class="cluster">
<title>cluster_ModalManagerModule_exports</title>
<polygon fill="none" stroke="#000000" points="162,-208 162,-260 348,-260 348,-208 162,-208"/>
</g>
<g id="clust7" class="cluster">
<title>cluster_ModalManagerModule_providers</title>
<polygon fill="none" stroke="#000000" points="45,-78 45,-130 261,-130 261,-78 45,-78"/>
</g>
<!-- ModalWindowComponent -->
<g id="node1" class="node">
<title>ModalWindowComponent</title>
<polygon fill="#ffffb3" stroke="#000000" points="443.094,-122 276.906,-122 276.906,-86 443.094,-86 443.094,-122"/>
<text text-anchor="middle" x="360" y="-99.8" font-family="Times,serif" font-size="14.00" fill="#000000">ModalWindowComponent</text>
</g>
<!-- ModalManagerModule -->
<g id="node2" class="node">
<title>ModalManagerModule</title>
<polygon fill="#8dd3c7" stroke="#000000" points="327.8487,-187 324.8487,-191 303.8487,-191 300.8487,-187 182.1513,-187 182.1513,-151 327.8487,-151 327.8487,-187"/>
<text text-anchor="middle" x="255" y="-164.8" font-family="Times,serif" font-size="14.00" fill="#000000">ModalManagerModule</text>
</g>
<!-- ModalWindowComponent&#45;&gt;ModalManagerModule -->
<g id="edge1" class="edge">
<title>ModalWindowComponent&#45;&gt;ModalManagerModule</title>
<path fill="none" stroke="#000000" d="M302.4387,-122.1061C302.4387,-122.1061 302.4387,-140.991 302.4387,-140.991"/>
<polygon fill="#000000" stroke="#000000" points="298.9387,-140.9909 302.4387,-150.991 305.9387,-140.991 298.9387,-140.9909"/>
</g>
<!-- ModalWindowComponent  -->
<g id="node3" class="node">
<title>ModalWindowComponent </title>
<polygon fill="#fb8072" stroke="#000000" points="339.5945,-252 170.4055,-252 170.4055,-216 339.5945,-216 339.5945,-252"/>
<text text-anchor="middle" x="255" y="-229.8" font-family="Times,serif" font-size="14.00" fill="#000000">ModalWindowComponent </text>
</g>
<!-- ModalManagerModule&#45;&gt;ModalWindowComponent  -->
<g id="edge2" class="edge">
<title>ModalManagerModule&#45;&gt;ModalWindowComponent </title>
<path fill="none" stroke="#000000" stroke-dasharray="5,2" d="M255,-187.1061C255,-187.1061 255,-205.991 255,-205.991"/>
<polygon fill="#000000" stroke="#000000" points="251.5001,-205.9909 255,-215.991 258.5001,-205.991 251.5001,-205.9909"/>
</g>
<!-- ModalManagerService -->
<g id="node4" class="node">
<title>ModalManagerService</title>
<ellipse fill="#fdb462" stroke="#000000" cx="153" cy="-104" rx="99.5385" ry="18"/>
<text text-anchor="middle" x="153" y="-99.8" font-family="Times,serif" font-size="14.00" fill="#000000">ModalManagerService</text>
</g>
<!-- ModalManagerService&#45;&gt;ModalManagerModule -->
<g id="edge3" class="edge">
<title>ModalManagerService&#45;&gt;ModalManagerModule</title>
<path fill="none" stroke="#000000" d="M217.2975,-117.7848C217.2975,-117.7848 217.2975,-140.5475 217.2975,-140.5475"/>
<polygon fill="#000000" stroke="#000000" points="213.7976,-140.5474 217.2975,-150.5475 220.7976,-140.5475 213.7976,-140.5474"/>
</g>
</g>
</svg>
